Patient4_TMGait_0pt2_02_right_09_GRF.mot
version=1
nRows=26
nColumns=19
inDegrees=no
endheader
time	F1x	F1y	F1z	M1x	M1y	M1z	F2x	F2y	F2z	M2x	M2y	M2z	EC1x	EC1y	EC1z	EC2x	EC2y	EC2z
19.15	-5.1498	736.5199	41.898	-265.3461	-46.9353	803.8858	-2.9914	55.9184	-5.0093	21.9313	6.1399	56.8312	-0.0592	0.0182	-0.0073	-0.0462	0.0165	0.9585
19.1741	-8.5948	763.0885	43.6967	-274.7951	-49.7212	832.9288	-3.1439	49.4544	-4.6561	19.1448	5.8881	49.9997	-0.0592	0.0182	-0.0073	-0.0462	0.0165	0.9585
19.1983	-12.4593	793.509	45.6441	-285.5829	-52.7012	865.7975	-3.4472	41.6406	-4.138	15.9192	5.5077	41.9062	-0.0592	0.0182	-0.0073	-0.0462	0.0165	0.9585
19.2224	-16.2541	824.4511	47.5312	-296.5292	-55.4869	898.6984	-3.7138	33.1219	-3.4761	12.5156	4.9525	33.2143	-0.0592	0.0182	-0.0073	-0.0462	0.0165	0.9585
19.2466	-19.3847	851.6802	49.1421	-306.1413	-57.6568	926.8913	-3.7134	24.6429	-2.7205	9.2092	4.1944	24.6586	-0.0592	0.0182	-0.0073	-0.0462	0.0165	0.9585
19.2707	-21.2986	870.9678	50.2553	-312.9375	-58.8068	945.7057	-3.3093	16.9038	-1.9489	6.2461	3.2692	16.9134	-0.0592	0.0182	-0.0073	-0.0462	0.0165	0.9585
19.2949	-21.6063	879.1856	50.6503	-315.836	-58.591	951.726	-2.601	10.4733	-1.2537	3.8188	2.31	10.5182	-0.0592	0.0182	-0.0073	-0.0462	0.0165	0.9585
19.319	-20.129	875.1744	50.1539	-314.4609	-56.7883	943.7117	-1.8202	5.6191	-0.69958	2.0084	1.4668	5.7162	-0.0592	0.0182	-0.0073	-0.0462	0.0165	0.9585
19.3431	-16.8935	860.0668	48.704	-309.247	-53.3695	922.9346	-1.1162	2.2485	-0.30114	0.76652	0.80656	2.3919	-0.0592	0.0182	-0.0073	-0.0462	0.0165	0.9585
19.3673	-12.1158	836.9158	46.3959	-301.3004	-48.5366	892.7626	-0.55808	0.06646	-0.043181	-0.025773	0.33803	0.22804	-0.0592	0.0182	-0.0073	-0.0462	0.0165	0.9585
19.3914	-6.1453	809.9043	43.4631	-292.1136	-42.682	857.7873	-0.16081	-1.3003	0.10377	-0.51273	0.036687	-1.1579	-0.0592	0.0182	-0.0073	-0.0462	0.0165	0.9585
19.4156	0.6127	783.3862	40.2304	-283.226	-36.3027	822.7752	0.097613	-2.2186	0.17628	-0.83438	-0.14217	-2.137	-0.0592	0.0182	-0.0073	-0.0462	0.0165	0.9585
19.4397	7.7516	760.9882	37.0457	-275.907	-29.9075	791.7061	0.26368	-2.9964	0.20971	-1.1072	-0.25106	-3.0197	-0.0592	0.0182	-0.0073	-0.0462	0.0165	0.9585
19.4639	14.9022	744.9666	34.2156	-270.928	-23.9377	767.1101	0.39425	-3.85	0.23572	-1.4126	-0.34379	-4.0184	-0.0592	0.0182	-0.0073	-0.0462	0.0165	0.9585
19.488	21.7596	735.9688	31.9667	-268.4789	-18.7233	749.835	0.54836	-4.8752	0.28066	-1.7869	-0.46998	-5.2224	-0.0592	0.0182	-0.0073	-0.0462	0.0165	0.9585
19.5121	28.1075	733.218	30.4326	-268.2359	-14.4673	739.2392	0.78145	-6.0121	0.36028	-2.2074	-0.6655	-6.559	-0.0592	0.0182	-0.0073	-0.0462	0.0165	0.9585
19.5363	33.8124	734.9782	29.6657	-269.5314	-11.2594	733.6786	1.1386	-7.01	0.47951	-2.5792	-0.94928	-7.7422	-0.0592	0.0182	-0.0073	-0.0462	0.0165	0.9585
19.5604	38.8161	739.1552	29.6673	-271.5723	-9.1128	731.1253	1.6471	-7.3832	0.63042	-2.7199	-1.3174	-8.2248	-0.0592	0.0182	-0.0073	-0.0462	0.0165	0.9585
19.5846	43.1267	743.7893	30.4084	-273.6216	-7.9879	729.6692	2.3035	-6.3757	0.78599	-2.3458	-1.7351	-7.1677	-0.0592	0.0182	-0.0073	-0.0462	0.0165	0.9585
19.6087	46.7735	747.2342	31.8277	-275.065	-7.8058	727.705	3.0594	-2.9543	0.89321	-1.0681	-2.12	-3.4222	-0.0592	0.0182	-0.0073	-0.0462	0.0165	0.9585
19.6329	49.755	748.0674	33.8041	-275.3808	-8.4432	723.8566	3.7946	4.1486	0.86769	1.5906	-2.3252	4.4302	-0.0592	0.0182	-0.0073	-0.0462	0.0165	0.9585
19.657	52.0202	744.9235	36.1308	-274.0797	-9.7185	716.8186	4.2893	16.3023	0.59144	6.1461	-2.1297	17.9301	-0.0592	0.0182	-0.0073	-0.0462	0.0165	0.9585
19.6811	53.4723	736.4358	38.5207	-270.6839	-11.3969	705.3081	4.2005	34.7103	-0.083439	13.0525	-1.2329	38.4486	-0.0592	0.0182	-0.0073	-0.0462	0.0165	0.9585
19.7053	53.992	721.3639	40.6434	-264.7698	-13.2144	688.1857	3.075	60.0257	-1.2984	22.5585	0.69638	66.7577	-0.0592	0.0182	-0.0073	-0.0462	0.0165	0.9585
19.7294	53.4694	698.8665	42.1863	-256.0565	-14.9257	664.7015	0.64583	92.098	-3.1565	34.6059	3.8722	102.7354	-0.0592	0.0182	-0.0073	-0.0462	0.0165	0.9585
19.7536	51.842	668.7739	42.9083	-244.5012	-16.3398	634.7419	-2.9582	129.7838	-5.7301	48.7527	8.3264	145.1233	-0.0592	0.0182	-0.0073	-0.0462	0.0165	0.9585
